<svg width="65" height="38" viewBox="0 0 65 38" fill="none" xmlns="http://www.w3.org/2000/svg">
<path d="M63.7395 7.45551C64.5416 6.61749 65 5.60608 65 4.3924C65 1.93612 63.0806 1.05735e-06 60.6743 1.16254e-06C59.4711 1.21513e-06 58.3825 0.491254 57.5231 1.35817L32.4857 27.5392L7.47686 1.35818C6.61745 0.491256 5.50022 3.57427e-06 4.32569 3.62562e-06C1.91935 3.7308e-06 -1.5764e-06 1.93613 -1.46903e-06 4.3924C-1.41598e-06 5.60609 0.429703 6.5886 1.26047 7.45552L29.0194 36.4106C30.022 37.4509 31.1679 38 32.5143 38C33.8321 38 34.9207 37.4798 35.9806 36.4106L63.7395 7.45551Z" fill="black"/>
</svg>
